<?xml version="1.0" ?>
<!-- Uploaded to: SVG Repo, www.svgrepo.com, Generator: SVG Repo Mixer Tools -->
<svg fill="#000000" width="800px" height="800px" viewBox="0 0 64 64" xmlns="http://www.w3.org/2000/svg">
<g id="a"/>
<g id="b"/>
<g id="c"/>
<g id="d"/>
<g id="e"/>
<g id="f"/>
<g id="g"/>
<g id="h"/>
<g id="i"/>
<g id="j"/>
<g id="k"/>
<g id="l">
<path d="M55.07,26.51l-13.69-5.08-1.05-5.42c-.2-1.05-1.12-1.81-2.19-1.81H21.06c-1.03,0-1.95,.65-2.3,1.62l-2.94,8.29-1.93-1.86c-.66-.63-1.52-.98-2.44-.98h-3.19c-.95,0-1.86,.46-2.42,1.23l-1.37,1.89c-.61,.83-.62,1.96-.04,2.81l.66,.96c.3,.44,.75,.73,1.27,.83,.52,.1,1.05-.01,1.53-.35l1.8-1.31,3.07,4.21c.59,.81,1.57,1.22,2.57,1.06l8.53-1.38,1.04,.96v15.6c0,1.11,.9,2.02,2.01,2.02h4.69c.9,0,1.77-.33,2.44-.94l8.06-7.34,4.04,6.91c.5,.85,1.41,1.37,2.39,1.37h6.14c1.11,0,2.01-.9,2.01-2.02v-7.59l2.78-2.79c.71-.71,.71-1.88,0-2.59-.09-.09-.18-.17-.28-.23l-2.51-1.68v-4.09c0-1.02-.64-1.95-1.6-2.31Zm-28.47,4.53l-.98-.91,12.92-12.89,.99,5.12h0l1.54,7.97-9.96,4.89-4.5-4.17Zm-5.96-14.55c.06-.17,.23-.29,.41-.29h15.69l-13.04,13.02-8.03,1.3,4.97-14.03ZM6.73,27.03l-.66-.96c-.1-.15-.1-.35,0-.5l1.16-1.6,1.27,1.75-1.78,1.31Zm2.48-3.76h2.24c.39,0,.77,.15,1.05,.42l2.59,2.49-1.23,3.47-4.64-6.38Zm23.47,24.1c-.3,.27-.69,.42-1.09,.42l-4.7-.02v-13.74l3.36,3.11c.31,.29,.76,.34,1.12,.16l11.27-5.53c.41-.2,.63-.64,.54-1.09l-1.35-6.97,11.96,4.44-21.11,19.21Zm21.98,.42h-6.14c-.27,0-.53-.15-.66-.38l-4.25-7.28,11.07-10.08v17.74Zm3.23-11.66l-1.23,1.23v-2.05l1.23,.82Z"/>
</g>
<g id="m"/>
<g id="n"/>
<g id="o"/>
<g id="p"/>
<g id="q"/>
<g id="r"/>
<g id="s"/>
<g id="t"/>
<g id="u"/>
<g id="v"/>
<g id="w"/>
<g id="x"/>
<g id="y"/>
<g id="a`"/>
<g id="aa"/>
<g id="ab"/>
<g id="ac"/>
<g id="ad"/>
<g id="ae"/>
<g id="af"/>
<g id="ag"/>
<g id="ah"/>
<g id="ai"/>
<g id="aj"/>
<g id="ak"/>
<g id="al"/>
<g id="am"/>
<g id="an"/>
<g id="ao"/>
<g id="ap"/>
<g id="aq"/>
<g id="ar"/>
<g id="as"/>
<g id="at"/>
<g id="au"/>
<g id="av"/>
<g id="aw"/>
<g id="ax"/>
</svg>